<svg width="406" height="306" viewBox="0 0 406 306" fill="none" xmlns="http://www.w3.org/2000/svg">
<path opacity="0.24" d="M392.646 236.638C380.951 258.863 362.002 276.664 337.869 283.216C307.736 291.368 275.617 281.569 244.581 284.887C224.96 286.974 206.291 294.269 187.122 298.978C128.26 313.462 59.1713 299.941 21.3449 252.602C18.9487 249.588 16.7178 246.446 14.662 243.19C0.86806 221.298 -5.11923 193.734 5.23218 170.367C13.0983 152.649 28.5987 140.514 40.0916 125.394C50.336 111.939 54.4266 98.9777 58.1189 82.9243C66.205 47.8449 95.9036 23.4023 129.075 11.7487C160.967 0.564944 195.63 0.255768 229.307 2.83024C253.464 4.61394 278.061 7.99703 299.775 18.6755C319.823 28.5036 336.483 44.1289 351.252 60.8897C380.707 94.2211 404.579 135.246 405.946 179.773C406.462 199.555 401.881 219.137 392.646 236.638Z" fill="#68E1FD"/>
<path opacity="0.24" d="M393.615 227.25C393.324 230.353 393.021 233.492 392.646 236.638C380.951 258.863 362.002 276.664 337.869 283.216C307.736 291.368 275.617 281.569 244.581 284.887C224.96 286.974 206.291 294.269 187.122 298.978C128.26 313.462 59.1713 299.941 21.345 252.602C18.9487 249.588 16.7178 246.446 14.662 243.19C16.7074 241.674 19.4543 240.508 22.986 239.801C49.4977 234.45 84.708 242.375 111.963 242.774C172.676 243.654 233.338 241.814 293.948 237.256C302.831 236.572 393.217 231.382 393.615 227.25Z" fill="#68E1FD"/>
<path opacity="0.24" d="M393.615 227.25C393.324 230.353 393.021 233.492 392.646 236.638C380.951 258.863 362.002 276.664 337.869 283.216C307.736 291.368 275.617 281.569 244.581 284.887C224.96 286.974 206.291 294.269 187.122 298.978C128.26 313.462 59.1713 299.941 21.345 252.602C18.9487 249.588 16.7178 246.446 14.662 243.19C16.7074 241.674 19.4543 240.508 22.986 239.801C49.4977 234.45 84.708 242.375 111.963 242.774C172.676 243.654 233.338 241.814 293.948 237.256C302.831 236.572 393.217 231.382 393.615 227.25Z" fill="#68E1FD"/>
<path opacity="0.55" d="M78.1142 269.541C97.0036 271.545 115.804 265.599 134.788 264.862C153.38 264.142 171.758 268.429 190.255 270.409C204.287 271.913 218.42 272.092 232.529 272.27L311.696 273.263C316.131 273.323 320.745 273.34 324.776 271.438C328.807 269.535 331.965 265.106 330.924 260.795C292.747 262.876 254.475 261.598 216.357 259.047C197.004 257.751 177.71 256.122 158.363 254.439C141.442 252.965 123.468 249.564 106.481 251.282C93.3113 252.614 78.471 259.772 66.8174 265.51C69.6833 268.334 74.1722 269.125 78.1142 269.541Z" fill="#68E1FD"/>
<path d="M112.48 85.594C111.257 83.963 109.633 82.6766 107.765 81.8601C105.902 80.9953 103.873 80.5473 101.82 80.5473C99.7658 80.5473 97.7368 80.9953 95.8739 81.8601C94.0224 82.757 92.4273 84.1068 91.2362 85.7842C90.0451 87.4617 89.2967 89.4127 89.0602 91.4564C88.9354 92.8477 89.0602 94.2449 88.977 95.6184C88.65 100.446 85.689 104.68 84.4939 109.371C83.8221 111.999 83.7091 114.769 82.8351 117.344C82.1751 119.306 81.0514 121.22 81.2238 123.289C81.3777 124.505 81.8223 125.665 82.52 126.673C85.148 130.781 90.3801 133.552 95.0059 131.994C96.2723 131.566 97.4258 130.84 98.6803 130.365C102.075 129.075 105.851 129.693 109.49 129.717C111.054 129.801 112.618 129.537 114.068 128.944C115.268 128.341 116.257 127.388 116.904 126.21C117.551 125.033 117.824 123.687 117.689 122.35C117.432 120.937 117.007 119.56 116.422 118.248C115.053 114.537 114.533 110.567 114.9 106.63C115.084 104.632 115.495 102.652 115.495 100.648C115.495 97.9966 113.64 96.0108 114.032 93.5909C114.472 90.7429 114.204 87.9901 112.48 85.594Z" fill="#606161"/>
<path d="M112.587 85.5345C111.362 83.9094 109.741 82.6258 107.878 81.8066C106.015 80.9426 103.986 80.495 101.933 80.495C99.8789 80.495 97.85 80.9426 95.9869 81.8066C94.1355 82.7029 92.5407 84.0526 91.3505 85.7303C90.1603 87.408 89.4134 89.3593 89.1791 91.4029C89.0483 92.7941 89.1791 94.1914 89.0899 95.5648C88.7689 100.393 85.802 104.626 84.6069 109.311C83.935 111.945 83.8221 114.716 82.954 117.29C82.2881 119.246 81.1703 121.167 81.3427 123.236C81.4901 124.455 81.9352 125.619 82.6389 126.625C85.2609 130.728 90.4931 133.504 95.1248 131.976C96.3912 131.542 97.5447 130.823 98.7992 130.347C102.2 129.057 105.976 129.675 109.608 129.699C111.175 129.783 112.74 129.519 114.193 128.926C115.391 128.321 116.379 127.368 117.025 126.191C117.672 125.014 117.947 123.668 117.813 122.332C117.554 120.917 117.127 119.538 116.541 118.224C115.175 114.515 114.655 110.548 115.019 106.612C115.209 104.614 115.614 102.634 115.614 100.631C115.614 97.9788 113.759 95.9929 114.151 93.5671C114.579 90.6894 114.317 87.9365 112.587 85.5345Z" fill="#606161"/>
<path d="M89.2861 114.163C89.9758 112.415 91.1114 110.857 91.6644 109.062C92.3422 106.868 92.0984 104.507 92.1816 102.212C92.2649 99.9171 92.7762 97.4556 94.5599 95.9691C95.9512 94.8276 97.8419 94.5362 99.6375 94.4114C102.105 94.2449 104.691 94.34 106.867 95.5054C110.31 97.3485 111.945 101.487 112.159 105.387C112.278 107.498 112.064 109.65 112.516 111.719C112.76 112.473 112.862 113.265 112.819 114.056C112.647 114.801 112.275 115.486 111.743 116.036C108.015 120.447 102.277 122.404 96.6765 122.891C94.8928 123.046 91.0579 123.7 89.5417 122.487C87.6748 120.911 88.5191 116.101 89.2861 114.163Z" fill="url(#paint0_linear_19_371)"/>
<path d="M101.427 112.183C101.469 111.475 100.743 108.17 100.743 107.462C100.743 105.821 102.349 106.832 103.853 106.178C105.357 105.524 108.247 105.322 108.431 106.945C108.889 111.024 108.55 112.498 109.412 113.432C110.185 114.27 110.435 115.281 109.709 116.161C109.007 117.066 108.01 117.697 106.891 117.944C105.619 118.182 104.329 117.736 103.11 117.296C102.23 116.981 100.47 116.357 100.244 115.275C100.018 114.193 101.35 113.348 101.427 112.183Z" fill="url(#paint1_linear_19_371)"/>
<path d="M100.886 108.788C100.886 108.788 101.481 112.219 104.299 112.617C105.807 112.899 107.364 112.729 108.776 112.129L108.883 107.967L100.886 108.788Z" fill="url(#paint2_linear_19_371)"/>
<path d="M94.5183 240.699C94.8929 246.484 95.2437 251.264 95.8917 253.779C96.302 255.349 97.3425 256.99 98.9419 257.269C99.5055 257.33 100.075 257.244 100.596 257.02C101.117 256.796 101.571 256.442 101.915 255.991C102.59 255.078 103.064 254.032 103.306 252.923C104.495 248.577 103.633 226.518 105.577 217.558C105.697 216.998 105.617 216.413 105.351 215.905C105.142 215.549 104.858 215.243 104.519 215.007C101.849 212.962 92.9189 211.297 91.8844 216.054C91.2422 218.961 94.2864 237.161 94.5183 240.699Z" fill="url(#paint3_linear_19_371)"/>
<path d="M119.633 253.773C119.086 255.301 118.182 256.984 116.583 257.263C116.019 257.324 115.449 257.238 114.928 257.014C114.408 256.79 113.953 256.436 113.61 255.985C112.935 255.072 112.461 254.026 112.219 252.917C111.029 248.571 110.869 243.998 110.714 239.515L109.941 217.552C109.876 216.99 109.956 216.421 110.173 215.899C110.383 215.543 110.667 215.237 111.006 215.001C113.675 212.956 120.852 210.608 121.886 215.364C122.511 218.278 121.565 248.315 119.633 253.773Z" fill="url(#paint4_linear_19_371)"/>
<path d="M96.2188 114.787C94.0605 115.935 92.146 117.165 90.7488 119.163C89.6385 120.856 88.7155 122.664 87.9959 124.556C80.4211 142.892 76.5624 163.013 65.4856 179.476C63.8881 181.786 62.9676 184.496 62.8279 187.301C62.7685 188.537 62.8755 190.059 64.017 190.594C64.3897 190.721 64.7848 190.769 65.177 190.734C65.5692 190.699 65.9497 190.583 66.2942 190.392C67.7065 189.768 68.9682 188.848 69.994 187.694C71.0198 186.54 71.7857 185.179 72.2399 183.703C72.3625 183.16 72.5627 182.638 72.8345 182.152C73.0545 181.813 73.3636 181.557 73.6074 181.206C74.636 179.863 74.4814 178.002 74.6836 176.319C74.9511 174.113 75.8727 172.056 76.83 170.04C80.6471 161.855 84.5732 153.729 88.6083 145.663C90.1126 142.837 91.4159 139.908 92.5087 136.899C93.3173 134.491 93.8465 132 94.5302 129.55C96.855 121.03 98.817 115.102 96.2188 114.787Z" fill="url(#paint5_linear_19_371)"/>
<path d="M112.772 113.2C112.772 113.2 125.787 117.076 129.55 127.79C133.314 138.504 144.896 175.849 144.896 175.849C144.896 175.849 151.163 182.437 150.925 184.5C150.687 186.563 150.604 190.832 147.601 189.816C144.599 188.799 139.176 185.113 138.742 182.288C138.479 179.91 138.405 177.514 138.522 175.124L123.272 138.427L117.92 131.697C117.92 131.697 109.817 116.636 112.772 113.2Z" fill="url(#paint6_linear_19_371)"/>
<path d="M164.754 256.924C164.689 258.113 164.606 259.356 165.165 260.397C165.417 260.869 165.788 261.268 166.241 261.554C166.694 261.839 167.214 262.002 167.749 262.026C168.284 262.05 168.816 261.935 169.293 261.691C169.77 261.446 170.175 261.083 170.468 260.634C170.857 259.961 171.109 259.217 171.211 258.446C172.056 254.11 172.591 249.719 172.811 245.307C172.87 244.082 172.811 242.643 171.812 241.923C171.091 241.513 170.256 241.348 169.434 241.454C168.155 241.483 166.461 241.454 165.343 242.197C163.97 243.101 164.511 244.147 164.63 245.657C164.936 249.405 164.978 253.17 164.754 256.924Z" fill="url(#paint7_linear_19_371)"/>
<path d="M177.995 256.336C178.067 257.525 178.132 258.768 178.81 259.737C179.119 260.173 179.536 260.523 180.02 260.751C180.503 260.979 181.038 261.077 181.572 261.037C182.105 260.997 182.619 260.82 183.063 260.522C183.508 260.224 183.868 259.816 184.108 259.338C184.41 258.623 184.571 257.856 184.583 257.079C184.901 252.673 184.901 248.25 184.583 243.844C184.5 242.619 184.268 241.198 183.192 240.598C182.438 240.287 181.605 240.224 180.814 240.419C179.547 240.598 177.841 240.782 176.836 241.644C175.576 242.702 176.242 243.677 176.539 245.158C177.285 248.845 177.772 252.58 177.995 256.336Z" fill="url(#paint8_linear_19_371)"/>
<path d="M186.968 204.097C188.632 207.391 189.578 211 191.064 214.377C191.855 216.161 192.806 217.945 192.961 219.877C193.115 221.809 192.194 224.039 190.333 224.633C189.512 224.857 188.636 224.754 187.888 224.346C187.141 223.938 186.581 223.257 186.325 222.445C186.181 221.575 186.135 220.692 186.189 219.811C186.105 217.695 185.059 215.762 184.167 213.866C182.146 209.502 179.94 204.038 179.411 199.216C179.066 195.993 181.789 197.729 183.18 199.002C184.745 200.453 186.029 202.181 186.968 204.097Z" fill="url(#paint9_linear_19_371)"/>
<path d="M172.698 170.736C170.257 171.966 168.368 174.069 167.406 176.628C166.657 178.757 166.663 181.058 166.354 183.293C166.092 185.171 165.603 187.01 164.897 188.769C164.249 190.392 163.399 192.051 163.607 193.787C163.81 195.012 164.387 196.144 165.26 197.028C168.042 200.06 172.621 201.053 176.628 200.102C177.559 199.918 178.437 199.532 179.202 198.972C180.57 197.878 181.111 196.053 181.319 194.316C181.527 192.58 181.503 190.797 182.062 189.138C182.509 187.983 183.077 186.879 183.757 185.844C184.736 184.19 185.631 182.487 186.438 180.742C186.765 180.102 187.009 179.423 187.164 178.721C187.313 177.7 187.174 176.658 186.762 175.713C186.35 174.767 185.682 173.956 184.833 173.37C183.852 172.668 182.693 172.264 181.664 171.64C180.98 171.223 180.356 170.712 179.648 170.338C177.633 169.291 174.595 169.731 172.698 170.736Z" fill="#606161"/>
<path d="M205.399 175.635C205.276 175.733 205.18 175.86 205.118 176.004C205.055 176.148 205.029 176.305 205.042 176.462C205.071 176.776 205.187 177.076 205.375 177.33C205.723 177.836 206.22 178.223 206.796 178.436C206.893 178.489 207.001 178.517 207.111 178.517C207.222 178.517 207.33 178.489 207.427 178.436C207.523 178.34 207.584 178.214 207.599 178.079C207.658 177.675 207.602 177.263 207.438 176.89C207.183 176.17 206.327 174.981 205.399 175.635Z" fill="url(#paint10_linear_19_371)"/>
<path d="M222.754 173.542C222.863 173.415 223.003 173.316 223.16 173.257C223.317 173.198 223.486 173.179 223.652 173.203C223.774 173.246 223.884 173.318 223.973 173.412C224.062 173.506 224.127 173.62 224.164 173.744C224.229 173.993 224.247 174.251 224.217 174.505C224.217 175.11 224.055 175.703 223.747 176.224C223.485 176.561 223.172 176.856 222.82 177.098C222.744 177.167 222.648 177.21 222.546 177.223C222.32 177.223 222.213 176.955 222.184 176.735C222.047 175.677 221.922 174.363 222.754 173.542Z" fill="url(#paint11_linear_19_371)"/>
<path d="M205.399 239.938L203.877 261.764C203.877 261.764 206.374 262.846 207.896 262.198C209.418 261.55 213.105 239.724 213.105 239.724L205.399 239.938Z" fill="url(#paint12_linear_19_371)"/>
<path d="M228.421 238.742L229.937 260.569C229.937 260.569 227.44 261.651 225.924 261.003C224.407 260.355 220.709 238.528 220.709 238.528L228.421 238.742Z" fill="url(#paint13_linear_19_371)"/>
<path d="M204.168 224.717C204.168 224.717 203.122 239.397 203.883 240.265C204.644 241.133 213.765 240.485 213.765 240.485L216.803 233.1L219.841 241.24C219.841 241.24 228.76 241.24 229.182 240.592C229.604 239.944 229.051 222.475 227.321 221.708C225.591 220.941 204.168 224.717 204.168 224.717Z" fill="#606161"/>
<path d="M187.514 216.238C186.8 217.22 186.266 218.321 185.939 219.49C185.782 220.078 185.783 220.696 185.942 221.283C186.101 221.869 186.411 222.404 186.843 222.832C187.622 223.412 188.586 223.687 189.554 223.605C190.743 223.605 192.051 223.224 192.604 222.178C192.848 221.501 193.002 220.796 193.062 220.079C193.484 218.063 195.268 216.678 196.718 215.21C197.651 214.266 198.48 213.226 199.192 212.106C200.25 210.435 201.059 208.426 200.583 206.511C200.409 205.849 200.061 205.245 199.575 204.763C199.089 204.281 198.482 203.938 197.818 203.77C196.005 203.407 195.291 204.959 194.322 206.243C191.873 209.448 189.691 212.843 187.514 216.238Z" fill="url(#paint14_linear_19_371)"/>
<path d="M212.807 186.682C209.751 186.95 206.529 187.277 204.061 189.114C202.609 190.285 201.412 191.739 200.541 193.389C198.443 196.992 197.152 199.709 195.19 203.39C194.144 205.358 200.767 209.288 200.767 209.288C201.509 208.931 202.094 208.316 202.414 207.557C202.831 212.968 203.372 217.998 203.788 223.409C203.778 223.872 203.909 224.328 204.162 224.717C204.656 225.311 205.583 225.264 206.356 225.157L225.614 222.392C225.923 222.423 226.235 222.381 226.524 222.268C226.813 222.155 227.071 221.974 227.276 221.742C227.482 221.51 227.629 221.232 227.706 220.931C227.783 220.631 227.788 220.316 227.719 220.014L227.951 205.149C227.912 203.913 228.06 202.679 228.391 201.487C228.828 200.357 229.453 199.31 230.24 198.389C231.566 196.677 232.244 198.08 233.76 196.534C234.073 196.274 234.284 195.912 234.354 195.512C234.32 195.117 234.144 194.748 233.861 194.471C231.941 192.093 232.702 187.99 230.775 185.606C226.161 187.955 217.986 186.236 212.807 186.682Z" fill="#68E1FD"/>
<path d="M212.344 186.29C212.13 187.645 212.177 189.263 213.235 190.113C213.668 190.437 214.168 190.661 214.698 190.767C215.086 190.871 215.486 190.921 215.887 190.916C217.356 190.844 218.557 189.596 219.038 188.204C219.426 186.782 219.529 185.297 219.342 183.834C219.344 183.054 219.188 182.281 218.884 181.563C218.556 180.987 218.068 180.517 217.48 180.211C216.891 179.905 216.227 179.776 215.566 179.839C211.696 180.178 212.778 183.513 212.344 186.29Z" fill="url(#paint15_linear_19_371)"/>
<path d="M271.331 176.83C269.898 181.295 269.547 186.028 269.22 190.701C268.003 208.289 267.012 225.89 266.247 243.505C265.974 249.73 267.24 257.923 261.812 262.371C260.313 263.595 258.458 264.446 257.34 266.027C257.176 266.225 257.075 266.467 257.049 266.723C257.049 267.49 258.06 267.745 258.833 267.751C261.782 267.751 264.733 267.724 267.686 267.668C269.024 267.638 270.558 267.502 271.36 266.431C272.044 265.516 271.955 264.267 272.044 263.138C272.3 260.26 274.69 257.566 275.344 254.748C284.732 214.353 285.886 204.805 289.869 197.491C291.576 201.059 293.437 209.823 293.775 213.777C294.572 222.862 296.231 229.83 296.683 238.962C296.897 243.356 296.641 247.881 297.111 252.251C297.581 256.621 298.948 261.211 300.28 265.45C300.344 265.987 300.619 266.477 301.043 266.811C301.468 267.146 302.008 267.298 302.545 267.234C306.372 267.563 310.217 267.613 314.05 267.383C314.569 267.392 315.082 267.272 315.543 267.032C316.488 266.437 316.488 264.963 315.893 264.012C315.299 263.06 314.294 262.454 313.408 261.752C311.765 260.405 310.477 258.676 309.656 256.716C308.835 254.756 308.507 252.625 308.699 250.509C308.961 248.172 309.082 245.821 309.062 243.469C308.996 240.55 309.008 237.625 309.062 234.699C309.294 222.998 310.251 211.315 310.138 199.62C310.123 192.408 309.452 185.211 308.134 178.12C307.932 177.104 307.665 176.01 306.844 175.374C306.024 174.737 305.013 174.743 304.032 174.743H281.652C277.901 174.737 274.369 174.654 271.331 176.83Z" fill="#606161"/>
<path d="M257.983 142.131L261.776 130.008C263.096 125.787 264.481 121.446 267.305 118.039C271.592 112.879 278.424 110.732 284.857 108.836C286.354 108.392 287.927 108.263 289.477 108.455C294.828 109.133 301.85 107.635 307.141 110.655C310.191 112.397 312.272 115.411 314.098 118.384C325.292 136.834 330.949 158.111 330.395 179.684C330.365 180.754 330.258 181.961 329.42 182.621C328.973 182.924 328.466 183.127 327.933 183.216C326.714 183.513 324.574 182.728 322.719 182.276C321.941 182.082 321.245 181.647 320.73 181.033C320.216 180.419 319.908 179.657 319.853 178.858C319.508 173.923 320.043 170.153 319.009 164.659C317.41 156.151 315.441 147.352 310.09 140.562L310.685 167.062C310.733 169.226 310.774 171.443 310.09 173.501C308.901 177.199 305.488 179.874 301.766 181.081C298.044 182.288 294.079 182.217 290.202 181.89C286.273 181.552 282.37 180.956 278.519 180.106C275.38 179.423 271.979 178.388 270.195 175.736C268.816 173.733 268.601 171.164 268.607 168.732C268.639 164.703 269.177 160.694 270.207 156.799C271.735 150.949 274.28 144.373 271.087 139.236C267.395 144.587 265.968 151.127 265.355 157.614C265.016 161.223 261.104 172.829 256.526 173.358C255.38 173.506 254.216 173.36 253.142 172.934C252.069 172.507 251.122 171.814 250.39 170.92C248.184 168.048 249.308 164.606 250.42 161.556C253.262 153.779 255.515 150.027 257.983 142.131Z" fill="#68E1FD"/>
<path d="M297.307 114.995C296.744 116.245 295.95 117.377 294.965 118.331C294.613 118.731 294.164 119.035 293.661 119.213C293.158 119.391 292.619 119.437 292.093 119.348C289.12 119.098 286.54 116.969 284.958 114.413C284.713 114.047 284.525 113.646 284.399 113.223C284.314 112.385 284.433 111.539 284.744 110.756C285.112 109.136 285.312 107.482 285.339 105.821C285.339 105.577 285.309 105.298 285.309 104.989C285.249 104.127 285.22 103.169 285.677 102.492C286.819 100.636 290.493 100.422 292.313 100.827C293.005 100.941 293.666 101.2 294.251 101.587C294.836 101.975 295.332 102.481 295.708 103.074C295.998 103.671 296.154 104.325 296.166 104.989C296.213 105.811 296.213 106.634 296.166 107.456C296.081 108.854 296.368 110.249 296.998 111.499C297.135 111.708 297.26 111.924 297.373 112.147C297.483 112.306 297.566 112.483 297.616 112.671C297.778 113.458 297.669 114.277 297.307 114.995Z" fill="url(#paint16_linear_19_371)"/>
<path d="M297.402 112.219C297.402 112.219 294.685 113.408 290.089 112.528C286.48 111.82 285.588 107.658 285.368 105.803C285.334 105.527 285.314 105.249 285.309 104.971H296.195C296.243 105.793 296.243 106.617 296.195 107.438C296.111 108.836 296.398 110.231 297.028 111.481C297.165 111.69 297.29 111.906 297.402 112.129V112.219Z" fill="url(#paint17_linear_19_371)"/>
<path d="M278.971 93.032C279.446 96.7005 280.463 100.411 282.764 103.306C285.065 106.202 288.841 108.128 292.473 107.426C293.545 107.183 294.585 106.823 295.577 106.35C296.155 106.137 296.692 105.825 297.165 105.429C297.654 104.895 298.034 104.271 298.282 103.591C298.953 102.173 299.518 100.706 299.971 99.2036C300.423 97.3766 300.703 95.5115 300.809 93.6325C301.032 91.7981 301.032 89.9434 300.809 88.109C300.377 85.4931 299.099 83.0911 297.171 81.2714C296.826 80.9167 296.424 80.6232 295.981 80.4034C295.396 80.1811 294.776 80.0644 294.15 80.0585C292.211 79.8701 290.258 79.89 288.323 80.118C286.378 80.3559 284.539 81.1392 283.02 82.3773C281.552 83.7763 280.473 85.532 279.886 87.4728C279.571 88.3706 279.292 89.2565 278.971 90.1662C278.65 91.0759 278.846 92.0866 278.971 93.032Z" fill="url(#paint18_linear_19_371)"/>
<path d="M276.896 82.4368C276.87 81.5936 276.938 80.7501 277.098 79.9218C277.119 79.7396 277.177 79.5636 277.268 79.4042C277.359 79.2449 277.481 79.1055 277.627 78.9943C277.817 78.9049 278.017 78.8371 278.222 78.7921C279.238 78.4889 279.845 77.49 280.463 76.6279C281.536 75.149 282.898 73.9026 284.465 72.9637C286.033 72.0248 287.774 71.4127 289.585 71.1644C291.395 70.9161 293.237 71.0367 294.999 71.5189C296.762 72.0011 298.408 72.8349 299.84 73.9702C300.543 74.4914 301.147 75.1337 301.624 75.8668C302.165 76.7468 302.432 77.7813 303.039 78.6197C303.729 79.5769 304.823 80.2072 305.483 81.1823C306.452 82.6033 306.368 84.5178 305.816 86.1469C305.263 87.776 304.317 89.2327 303.616 90.8024C302.914 92.372 302.254 94.2509 300.643 94.7919C300.483 94.35 300.45 93.8722 300.548 93.4125C300.802 91.0062 300.714 88.576 300.286 86.1945C300.271 85.9869 300.188 85.7901 300.048 85.6356C299.872 85.5217 299.662 85.4714 299.454 85.4929C298.175 85.4929 296.909 85.7129 295.631 85.6712C292.658 85.5761 289.869 84.167 286.926 83.6854C285.727 83.4094 284.471 83.5456 283.359 84.0719C282.525 84.6241 281.841 85.3736 281.367 86.2539C280.56 87.4039 280.016 88.7172 279.773 90.1008C279.746 90.6987 279.683 91.2943 279.583 91.8845C279.226 93.3352 278.531 92.7585 278.109 91.7299C277.721 90.753 277.444 89.7359 277.282 88.6976C276.975 86.6256 276.845 84.5309 276.896 82.4368Z" fill="#606161"/>
<path d="M322.582 194.251C322.674 194.618 322.854 194.956 323.105 195.238C323.356 195.428 323.649 195.557 323.959 195.612C324.269 195.668 324.588 195.65 324.889 195.559C326.41 195.196 327.761 194.323 328.718 193.086C329.666 191.854 330.394 190.468 330.871 188.989C331.28 187.976 331.492 186.895 331.495 185.802C331.434 184.882 331.198 183.982 330.799 183.15C329.979 181.319 328.587 179.613 326.673 178.989C326.043 178.825 325.387 178.788 324.743 178.879C324.099 178.97 323.479 179.188 322.919 179.519C322.36 179.851 321.871 180.29 321.481 180.811C321.092 181.332 320.809 181.925 320.65 182.556C319.853 186.45 321.34 190.642 322.582 194.251Z" fill="url(#paint19_linear_19_371)"/>
<path d="M207.974 180.499C208.416 181.688 209.084 182.78 209.942 183.715C210.544 184.317 211.263 184.789 212.054 185.104C212.845 185.419 213.692 185.569 214.543 185.547C217.284 185.463 219.722 183.519 221.042 181.117C222.362 178.715 222.743 175.903 222.861 173.162C223.007 171.574 222.843 169.973 222.38 168.447C221.897 167.219 221.115 166.131 220.106 165.281C219.097 164.431 217.893 163.845 216.601 163.577C215.304 163.333 213.972 163.348 212.682 163.621C211.391 163.893 210.167 164.418 209.079 165.165C208.348 165.629 207.717 166.235 207.224 166.949C206.602 168.084 206.236 169.342 206.154 170.635C205.959 171.473 205.922 172.34 206.047 173.192C206.225 173.887 206.386 174.529 206.499 175.249C206.778 177.052 207.273 178.814 207.974 180.499Z" fill="url(#paint20_linear_19_371)"/>
<path d="M203.431 171.515C202.496 169.901 201.941 168.095 201.808 166.235C201.808 165.545 201.891 164.731 202.492 164.386C202.716 164.28 202.949 164.193 203.187 164.124C203.787 163.804 204.315 163.365 204.739 162.834C205.823 161.862 207.048 161.061 208.372 160.456C209.017 160.087 209.709 159.807 210.429 159.623C211.019 159.533 211.617 159.509 212.213 159.552C214.526 159.641 217.017 159.891 218.753 161.419C219.009 161.645 219.247 161.901 219.526 162.103C220.394 162.733 221.583 162.834 222.398 163.536C222.785 163.892 223.092 164.328 223.296 164.814C223.993 166.296 224.23 167.953 223.973 169.571C223.846 170.248 223.677 170.917 223.468 171.574L222.814 173.786C221.898 171.503 220.921 169.248 219.883 167.02C218.569 167.519 217.199 167.856 215.804 168.025C214.199 168.15 212.522 167.829 211 168.358C209.933 168.806 208.971 169.472 208.176 170.314C207.795 170.641 207.468 171.026 207.207 171.455C206.451 172.835 207.207 174.535 206.541 175.891C205.946 175.73 205.268 174.363 204.912 173.857C204.376 173.104 203.882 172.322 203.431 171.515Z" fill="#606161"/>
<path d="M238.1 182.812C238.1 182.812 232.565 185.743 230.716 186.284C228.867 186.825 230.567 195.262 232.238 194.858C233.909 194.453 245.158 185.939 246.026 185.416C246.894 184.893 248.63 183.68 248.63 183.68C248.63 183.68 251.347 183.894 253.844 180.314C256.342 176.735 253.731 173.144 253.297 173.037C252.863 172.93 251.163 171.408 250.081 171.77C248.999 172.133 246.168 175.897 246.168 175.897C246.168 175.897 241.882 181.712 238.1 182.812Z" fill="url(#paint21_linear_19_371)"/>
<path d="M247.691 178.614C247.738 179.756 247.863 180.962 248.565 181.854C248.847 182.219 249.212 182.511 249.629 182.708C250.046 182.904 250.503 182.999 250.964 182.985C251.425 182.971 251.876 182.849 252.281 182.627C252.685 182.406 253.031 182.092 253.291 181.712C253.957 180.748 253.993 179.482 254.528 178.442C255.063 177.401 256.175 176.557 256.633 175.409C257.792 172.549 254.338 169.053 251.508 170.201C248.166 171.556 247.56 175.487 247.691 178.614Z" fill="url(#paint22_linear_19_371)"/>
<path d="M204.906 259.511C204.445 259.469 203.982 259.487 203.526 259.564C203.201 259.676 202.896 259.838 202.622 260.046L199.329 262.299C198.841 262.632 198.3 263.06 198.3 263.649C198.305 263.911 198.397 264.164 198.562 264.368C199.216 265.213 200.464 265.23 201.534 265.171L206.416 264.886C206.818 264.939 207.227 264.857 207.578 264.652C207.929 264.448 208.202 264.133 208.354 263.756C208.949 262.745 210.055 261.164 209.258 260.01C208.289 258.625 206.214 259.511 204.906 259.511Z" fill="#606161"/>
<path d="M228.468 259.511C228.93 259.469 229.396 259.487 229.854 259.564C230.177 259.678 230.482 259.841 230.757 260.046L234.051 262.299C234.539 262.632 235.074 263.06 235.08 263.649C235.073 263.912 234.979 264.165 234.812 264.368C234.164 265.213 232.916 265.23 231.839 265.171L226.958 264.886C226.556 264.939 226.148 264.856 225.798 264.652C225.449 264.447 225.177 264.132 225.026 263.756C224.431 262.745 223.319 261.164 224.116 260.01C225.085 258.625 227.16 259.511 228.468 259.511Z" fill="#606161"/>
<path d="M164.766 205.453C164.483 206.918 164.085 208.36 163.577 209.763C161.906 214.877 160.236 219.99 158.517 225.085C156.861 230.271 154.904 235.355 152.655 240.312C158.916 243.22 165.617 246.163 172.466 245.265C174.88 244.95 177.223 244.153 179.642 243.844C182.062 243.535 184.649 243.731 187.146 243.523C189.643 243.315 192.229 242.631 194.013 240.877L190.398 233.814C189.078 231.233 187.758 228.647 186.682 225.953C184.643 220.815 183.532 215.355 183.4 209.829C183.329 206.969 183.519 204.067 182.918 201.267C182.708 199.911 182.085 198.653 181.135 197.664C179.868 196.475 178.043 196.201 176.331 196.035C173.857 195.797 168.488 194.691 166.312 196.279C164.136 197.866 165.165 203.098 164.766 205.453Z" fill="#68E1FD"/>
<path d="M168.607 183.739C168.487 183.812 168.386 183.914 168.314 184.035C168.243 184.157 168.202 184.294 168.197 184.435C168.193 184.715 168.263 184.992 168.399 185.237C168.655 185.72 169.051 186.114 169.535 186.367C169.616 186.421 169.71 186.455 169.808 186.464C169.905 186.473 170.003 186.458 170.094 186.421C170.189 186.348 170.256 186.245 170.284 186.129C170.385 185.778 170.385 185.405 170.284 185.053C170.1 184.399 169.493 183.263 168.607 183.739Z" fill="url(#paint23_linear_19_371)"/>
<path d="M184.161 183.775C184.27 183.671 184.404 183.598 184.55 183.563C184.696 183.528 184.849 183.531 184.994 183.573C185.096 183.623 185.184 183.698 185.252 183.79C185.319 183.882 185.363 183.989 185.38 184.102C185.414 184.33 185.404 184.562 185.35 184.786C185.285 185.317 185.08 185.822 184.756 186.248C184.491 186.52 184.184 186.747 183.846 186.92C183.771 186.977 183.679 187.006 183.584 187.003C183.388 187.003 183.329 186.73 183.323 186.534C183.287 185.564 183.335 184.405 184.161 183.775Z" fill="url(#paint24_linear_19_371)"/>
<path d="M172.347 193.966C172.157 195.155 172.198 196.594 173.144 197.367C173.529 197.657 173.974 197.86 174.446 197.961C174.795 198.055 175.155 198.099 175.516 198.092C176.824 198.033 177.894 196.903 178.328 195.684C178.674 194.416 178.764 193.093 178.596 191.79C178.596 191.095 178.457 190.408 178.186 189.768C177.889 189.255 177.451 188.839 176.924 188.57C176.396 188.301 175.802 188.191 175.213 188.252C171.77 188.519 172.74 191.486 172.347 193.966Z" fill="url(#paint25_linear_19_371)"/>
<path d="M175.51 194.792C175.933 194.991 176.393 195.102 176.86 195.119C177.094 195.124 177.326 195.081 177.543 194.994C177.76 194.906 177.956 194.774 178.12 194.608C178.487 194.09 178.644 193.453 178.56 192.824C178.568 192.601 178.53 192.378 178.447 192.17C178.3 191.899 178.062 191.689 177.776 191.576C177.159 191.324 176.497 191.2 175.831 191.213C175.064 191.188 174.297 191.226 173.536 191.326C172.728 191.427 172.305 191.48 172.74 192.331C173.346 193.45 174.327 194.322 175.51 194.792Z" fill="url(#paint26_linear_19_371)"/>
<path d="M170.32 188.317C170.582 189.414 171.055 190.45 171.711 191.367C172.178 191.966 172.762 192.463 173.428 192.828C174.093 193.192 174.826 193.418 175.582 193.49C178.013 193.716 180.374 192.259 181.807 190.279C183.24 188.299 183.87 185.856 184.274 183.448C184.575 182.061 184.603 180.63 184.357 179.232C184.066 178.094 183.495 177.046 182.695 176.186C181.895 175.325 180.893 174.678 179.779 174.303C178.661 173.946 177.482 173.815 176.313 173.917C175.143 174.019 174.005 174.353 172.965 174.898C172.274 175.228 171.657 175.695 171.152 176.271C170.482 177.208 170.023 178.279 169.808 179.411C169.545 180.13 169.42 180.892 169.44 181.658C169.517 182.288 169.594 182.847 169.612 183.525C169.658 185.145 169.895 186.753 170.32 188.317Z" fill="url(#paint27_linear_19_371)"/>
<path d="M168.899 182.687C168.939 183.001 169.046 183.303 169.213 183.571C169.38 183.84 169.604 184.07 169.868 184.244C170.182 184.376 170.52 184.442 170.861 184.441C171.835 184.562 172.823 184.477 173.762 184.191C174.231 184.041 174.641 183.75 174.937 183.357C175.233 182.964 175.4 182.489 175.415 181.997C175.32 182.526 175.302 183.216 175.79 183.436C175.935 183.494 176.091 183.522 176.247 183.519L178.388 183.614C178.986 183.676 179.589 183.631 180.172 183.483C180.462 183.406 180.728 183.256 180.946 183.049C181.163 182.841 181.324 182.581 181.414 182.294C181.807 182.925 182.645 183.097 183.388 183.139C183.772 183.184 184.161 183.131 184.518 182.984C185.22 182.627 185.41 181.729 185.517 180.951C185.756 179.837 185.736 178.684 185.457 177.579C185.01 176.504 184.286 175.567 183.359 174.862C182.643 174.183 181.821 173.625 180.927 173.209C179.752 172.779 178.499 172.607 177.252 172.704C175.872 172.748 174.5 172.929 173.156 173.245C171.914 173.463 170.758 174.021 169.814 174.856C168.762 175.921 168.946 176.937 168.952 178.275C168.976 179.791 168.536 181.117 168.899 182.687Z" fill="#606161"/>
<path d="M157.691 191.641C155.491 189.197 153.577 186.438 150.925 184.506C150.392 184.046 149.729 183.761 149.028 183.692C147.762 183.662 146.757 184.928 146.65 186.189C146.543 187.449 147.054 188.686 147.619 189.822C150.981 196.523 156.124 202.17 162.483 206.142C162.912 206.468 163.427 206.658 163.964 206.689C165.028 206.654 165.67 205.5 165.973 204.49C166.436 202.9 166.598 201.239 166.449 199.59C166.271 197.61 166.229 197.105 164.54 196.469C161.891 195.454 159.537 193.795 157.691 191.641Z" fill="url(#paint28_linear_19_371)"/>
<path d="M163.435 259.32C162.519 260.009 161.641 260.747 160.807 261.532C160.408 261.865 159.962 262.252 159.962 262.769C159.976 262.968 160.042 263.159 160.154 263.324C160.266 263.489 160.419 263.622 160.598 263.708C160.959 263.877 161.349 263.974 161.746 263.994C163.629 264.183 165.529 264.137 167.4 263.857C167.916 263.796 168.422 263.668 168.905 263.476C169.799 263.035 170.509 262.292 170.908 261.378C173.102 256.687 165.753 257.769 163.435 259.32Z" fill="#606161"/>
<path d="M185.184 259.32C186.105 260.01 186.988 260.748 187.83 261.532C188.222 261.865 188.668 262.252 188.668 262.769C188.655 262.968 188.59 263.16 188.478 263.325C188.366 263.491 188.212 263.623 188.032 263.708C187.672 263.878 187.282 263.975 186.884 263.994C185.001 264.183 183.102 264.137 181.23 263.857C180.714 263.796 180.208 263.668 179.726 263.476C178.832 263.034 178.123 262.291 177.722 261.378C175.522 256.687 182.871 257.769 185.184 259.32Z" fill="#606161"/>
<path d="M96.2188 114.787C96.7541 118.877 96.1364 123.034 94.4351 126.791C93.6443 128.296 92.9454 129.846 92.3422 131.435C90.2018 138.261 95.1248 145.705 93.4421 152.643C88.6856 172.187 79.8385 190.856 79.1309 210.952C79.0659 211.455 79.155 211.965 79.3866 212.415C79.793 212.895 80.3588 213.211 80.98 213.307C93.4659 216.714 106.546 220.002 119.139 217.172C124.8 215.899 130.115 213.438 135.377 210.994C136.566 210.435 137.898 209.751 138.35 208.497C138.531 207.795 138.556 207.062 138.421 206.35C137.618 199.495 136.453 192.628 133.98 186.183C131.358 179.357 127.332 173.18 124.128 166.61C120.923 160.04 118.503 152.75 119.472 145.503C120.114 140.692 122.184 135.627 120.18 131.233C119.49 129.717 118.396 128.444 117.445 127.071C115.529 124.221 114.402 120.914 114.181 117.487C114.08 115.941 114.044 114.121 112.777 113.223C111.202 112.118 109.067 113.301 107.593 114.537C106.118 115.774 104.245 117.183 102.468 116.452C101.546 116.071 100.946 115.191 100.19 114.537C99.4354 113.883 96.9917 114.151 96.2188 114.787Z" fill="#68E1FD"/>
<path d="M97.1047 253.648C96.7885 253.498 96.4268 253.474 96.0939 253.583C95.7253 253.767 95.6301 254.231 95.5291 254.623C94.9371 256.596 93.6481 258.287 91.9022 259.38C91.1012 259.86 90.3397 260.402 89.625 261.003C89.2682 261.306 88.9849 261.686 88.7965 262.115C88.608 262.543 88.5192 263.009 88.5369 263.476C88.5419 263.572 88.5727 263.665 88.6261 263.744C88.7327 263.837 88.871 263.886 89.0126 263.881C91.3644 264.028 93.7227 264.042 96.0761 263.922C98.4543 263.845 100.957 263.726 102.961 262.442C103.195 262.3 103.397 262.112 103.556 261.889C103.773 261.476 103.864 261.009 103.817 260.545V256.49C103.817 255.783 104.204 253.553 103.508 253.173C102.812 252.792 101.326 253.827 100.672 253.934C99.4765 254.105 98.2577 254.008 97.1047 253.648Z" fill="#606161"/>
<path d="M113.402 252.174C115.239 252.739 117.314 253.018 119.009 252.12C119.377 251.924 119.823 251.668 120.198 251.876C120.351 251.98 120.469 252.127 120.537 252.299C121.131 253.488 120.887 254.891 121.333 256.122C121.851 257.543 123.165 258.5 124.449 259.303C124.955 259.569 125.406 259.93 125.775 260.367C125.955 260.588 126.063 260.859 126.087 261.143C126.11 261.428 126.047 261.713 125.906 261.96C125.699 262.18 125.446 262.351 125.165 262.461C124.885 262.571 124.583 262.617 124.282 262.597C121.245 262.821 118.197 262.853 115.156 262.692C114.771 262.697 114.389 262.627 114.032 262.484C113.675 262.317 113.396 262.014 113.051 261.824C112.696 261.682 112.353 261.515 112.022 261.324C111.647 260.99 111.385 260.547 111.273 260.058C110.675 258.159 110.473 256.158 110.679 254.177C110.893 252.215 111.392 251.544 113.402 252.174Z" fill="#606161"/>
<path d="M106.136 86.7415C106.136 86.7415 110.387 87.3658 111.018 91.2423C111.648 95.1189 112.516 108.485 107.26 110.268C102.004 112.052 96.9976 105.887 95.9987 103.383C94.9999 100.88 91.6168 84.8626 106.136 86.7415Z" fill="url(#paint29_linear_19_371)"/>
<path d="M94.0962 97.7885C94.3816 96.6648 95.6421 96.1416 96.7361 95.7373C98.3805 95.2007 99.9093 94.3596 101.243 93.2579C101.907 92.7027 102.443 92.0114 102.817 91.2308C103.19 90.4502 103.391 89.5985 103.407 88.7333C103.544 89.2375 103.793 89.7043 104.136 90.0986C104.479 90.4929 104.907 90.8047 105.387 91.0105C106.315 91.4861 107.337 91.7537 108.247 92.265C109.347 92.8961 110.22 93.8571 110.744 95.0119C110.82 95.2635 110.976 95.4831 111.19 95.6362C111.678 95.8918 112.189 95.3151 112.379 94.7978C112.615 93.9753 112.683 93.1139 112.581 92.2644C112.479 91.4149 112.208 90.5944 111.785 89.851C110.934 88.372 109.888 87.0141 108.675 85.8139C108.084 85.1186 107.39 84.5171 106.618 84.0302C105.321 83.3773 103.841 83.1844 102.42 83.4832C100.972 83.7203 99.5853 84.2432 98.3411 85.0215C97.097 85.7998 96.0202 86.8179 95.1736 88.0165C94.3269 89.2152 93.7272 90.5703 93.4096 92.003C93.0919 93.4358 93.0625 94.9174 93.3232 96.3616" fill="#606161"/>
<path opacity="0.24" d="M162.549 82.6925C162.549 82.6925 167.115 67.7629 178.929 69.612C190.743 71.4611 192.747 80.4509 192.747 80.4509C192.747 80.4509 199.055 63.9696 215.501 70.1174C234.783 77.3235 219.484 99.7922 217.588 101.296C215.691 102.801 190.767 126.512 190.767 126.512C190.767 126.512 164.606 100.292 163.143 97.5685C161.681 94.8454 160.176 89.75 162.549 82.6925Z" fill="#68E1FD"/>
<defs>
<linearGradient id="paint0_linear_19_371" x1="102.7" y1="79.2975" x2="96.7301" y2="186.563" gradientUnits="userSpaceOnUse">
<stop offset="0.12" stop-color="#010101" stop-opacity="0"/>
<stop offset="0.95" stop-color="#010101"/>
</linearGradient>
<linearGradient id="paint1_linear_19_371" x1="99.8727" y1="112.759" x2="109.633" y2="111.379" gradientUnits="userSpaceOnUse">
<stop stop-color="#E5C6D6"/>
<stop offset="0.42" stop-color="#EAD4D0"/>
<stop offset="1" stop-color="#F0E9CB"/>
</linearGradient>
<linearGradient id="paint2_linear_19_371" x1="103.972" y1="115.453" x2="107.099" y2="97.301" gradientUnits="userSpaceOnUse">
<stop offset="0.12" stop-color="#010101" stop-opacity="0"/>
<stop offset="0.95" stop-color="#010101"/>
</linearGradient>
<linearGradient id="paint3_linear_19_371" x1="91.8071" y1="235.133" x2="105.637" y2="235.133" gradientUnits="userSpaceOnUse">
<stop stop-color="#E5C6D6"/>
<stop offset="0.42" stop-color="#EAD4D0"/>
<stop offset="1" stop-color="#F0E9CB"/>
</linearGradient>
<linearGradient id="paint4_linear_19_371" x1="122.071" y1="234.937" x2="109.929" y2="234.937" gradientUnits="userSpaceOnUse">
<stop stop-color="#E5C6D6"/>
<stop offset="0.42" stop-color="#EAD4D0"/>
<stop offset="1" stop-color="#F0E9CB"/>
</linearGradient>
<linearGradient id="paint5_linear_19_371" x1="62.816" y1="152.774" x2="97.4495" y2="152.774" gradientUnits="userSpaceOnUse">
<stop stop-color="#E5C6D6"/>
<stop offset="0.42" stop-color="#EAD4D0"/>
<stop offset="1" stop-color="#F0E9CB"/>
</linearGradient>
<linearGradient id="paint6_linear_19_371" x1="112.118" y1="151.585" x2="150.931" y2="151.585" gradientUnits="userSpaceOnUse">
<stop stop-color="#E5C6D6"/>
<stop offset="0.42" stop-color="#EAD4D0"/>
<stop offset="1" stop-color="#F0E9CB"/>
</linearGradient>
<linearGradient id="paint7_linear_19_371" x1="164.433" y1="251.74" x2="172.829" y2="251.74" gradientUnits="userSpaceOnUse">
<stop stop-color="#E5C6D6"/>
<stop offset="0.42" stop-color="#EAD4D0"/>
<stop offset="1" stop-color="#F0E9CB"/>
</linearGradient>
<linearGradient id="paint8_linear_19_371" x1="177.073" y1="251.211" x2="185.402" y2="250.212" gradientUnits="userSpaceOnUse">
<stop stop-color="#E5C6D6"/>
<stop offset="0.42" stop-color="#EAD4D0"/>
<stop offset="1" stop-color="#F0E9CB"/>
</linearGradient>
<linearGradient id="paint9_linear_19_371" x1="179.375" y1="211.042" x2="192.955" y2="211.042" gradientUnits="userSpaceOnUse">
<stop stop-color="#E5C6D6"/>
<stop offset="0.42" stop-color="#EAD4D0"/>
<stop offset="1" stop-color="#F0E9CB"/>
</linearGradient>
<linearGradient id="paint10_linear_19_371" x1="205.048" y1="176.979" x2="207.635" y2="176.979" gradientUnits="userSpaceOnUse">
<stop stop-color="#E5C6D6"/>
<stop offset="0.42" stop-color="#EAD4D0"/>
<stop offset="1" stop-color="#F0E9CB"/>
</linearGradient>
<linearGradient id="paint11_linear_19_371" x1="222.071" y1="175.201" x2="224.229" y2="175.201" gradientUnits="userSpaceOnUse">
<stop stop-color="#E5C6D6"/>
<stop offset="0.42" stop-color="#EAD4D0"/>
<stop offset="1" stop-color="#F0E9CB"/>
</linearGradient>
<linearGradient id="paint12_linear_19_371" x1="203.883" y1="251.062" x2="213.111" y2="251.062" gradientUnits="userSpaceOnUse">
<stop stop-color="#E5C6D6"/>
<stop offset="0.42" stop-color="#EAD4D0"/>
<stop offset="1" stop-color="#F0E9CB"/>
</linearGradient>
<linearGradient id="paint13_linear_19_371" x1="229.937" y1="249.867" x2="220.709" y2="249.867" gradientUnits="userSpaceOnUse">
<stop stop-color="#E5C6D6"/>
<stop offset="0.42" stop-color="#EAD4D0"/>
<stop offset="1" stop-color="#F0E9CB"/>
</linearGradient>
<linearGradient id="paint14_linear_19_371" x1="185.844" y1="213.664" x2="200.72" y2="213.664" gradientUnits="userSpaceOnUse">
<stop stop-color="#E5C6D6"/>
<stop offset="0.42" stop-color="#EAD4D0"/>
<stop offset="1" stop-color="#F0E9CB"/>
</linearGradient>
<linearGradient id="paint15_linear_19_371" x1="212.243" y1="185.38" x2="219.431" y2="185.38" gradientUnits="userSpaceOnUse">
<stop stop-color="#E5C6D6"/>
<stop offset="0.42" stop-color="#EAD4D0"/>
<stop offset="1" stop-color="#F0E9CB"/>
</linearGradient>
<linearGradient id="paint16_linear_19_371" x1="284.358" y1="109.989" x2="297.717" y2="109.989" gradientUnits="userSpaceOnUse">
<stop stop-color="#E5C6D6"/>
<stop offset="0.42" stop-color="#EAD4D0"/>
<stop offset="1" stop-color="#F0E9CB"/>
</linearGradient>
<linearGradient id="paint17_linear_19_371" x1="291.07" y1="113.86" x2="292.295" y2="91.2661" gradientUnits="userSpaceOnUse">
<stop offset="0.12" stop-color="#010101" stop-opacity="0"/>
<stop offset="0.95" stop-color="#010101"/>
</linearGradient>
<linearGradient id="paint18_linear_19_371" x1="288.109" y1="82.3833" x2="293.799" y2="109.4" gradientUnits="userSpaceOnUse">
<stop stop-color="#E5C6D6"/>
<stop offset="0.42" stop-color="#EAD4D0"/>
<stop offset="1" stop-color="#F0E9CB"/>
</linearGradient>
<linearGradient id="paint19_linear_19_371" x1="320.436" y1="187.229" x2="331.519" y2="187.229" gradientUnits="userSpaceOnUse">
<stop stop-color="#E5C6D6"/>
<stop offset="0.42" stop-color="#EAD4D0"/>
<stop offset="1" stop-color="#F0E9CB"/>
</linearGradient>
<linearGradient id="paint20_linear_19_371" x1="205.958" y1="174.47" x2="222.891" y2="174.47" gradientUnits="userSpaceOnUse">
<stop stop-color="#E5C6D6"/>
<stop offset="0.42" stop-color="#EAD4D0"/>
<stop offset="1" stop-color="#F0E9CB"/>
</linearGradient>
<linearGradient id="paint21_linear_19_371" x1="229.895" y1="183.317" x2="254.891" y2="183.317" gradientUnits="userSpaceOnUse">
<stop stop-color="#E5C6D6"/>
<stop offset="0.42" stop-color="#EAD4D0"/>
<stop offset="1" stop-color="#F0E9CB"/>
</linearGradient>
<linearGradient id="paint22_linear_19_371" x1="247.679" y1="176.479" x2="256.865" y2="176.479" gradientUnits="userSpaceOnUse">
<stop stop-color="#E5C6D6"/>
<stop offset="0.42" stop-color="#EAD4D0"/>
<stop offset="1" stop-color="#F0E9CB"/>
</linearGradient>
<linearGradient id="paint23_linear_19_371" x1="168.15" y1="184.884" x2="170.433" y2="185.164" gradientUnits="userSpaceOnUse">
<stop stop-color="#E5C6D6"/>
<stop offset="0.42" stop-color="#EAD4D0"/>
<stop offset="1" stop-color="#F0E9CB"/>
</linearGradient>
<linearGradient id="paint24_linear_19_371" x1="183.385" y1="185.161" x2="185.291" y2="185.395" gradientUnits="userSpaceOnUse">
<stop stop-color="#E5C6D6"/>
<stop offset="0.42" stop-color="#EAD4D0"/>
<stop offset="1" stop-color="#F0E9CB"/>
</linearGradient>
<linearGradient id="paint25_linear_19_371" x1="172.258" y1="193.157" x2="178.661" y2="193.157" gradientUnits="userSpaceOnUse">
<stop stop-color="#E5C6D6"/>
<stop offset="0.42" stop-color="#EAD4D0"/>
<stop offset="1" stop-color="#F0E9CB"/>
</linearGradient>
<linearGradient id="paint26_linear_19_371" x1="174.357" y1="195.238" x2="178.703" y2="186.391" gradientUnits="userSpaceOnUse">
<stop offset="0.12" stop-color="#010101" stop-opacity="0"/>
<stop offset="0.95" stop-color="#010101"/>
</linearGradient>
<linearGradient id="paint27_linear_19_371" x1="169.224" y1="182.769" x2="184.19" y2="184.607" gradientUnits="userSpaceOnUse">
<stop stop-color="#E5C6D6"/>
<stop offset="0.42" stop-color="#EAD4D0"/>
<stop offset="1" stop-color="#F0E9CB"/>
</linearGradient>
<linearGradient id="paint28_linear_19_371" x1="146.614" y1="195.185" x2="166.514" y2="195.185" gradientUnits="userSpaceOnUse">
<stop stop-color="#E5C6D6"/>
<stop offset="0.42" stop-color="#EAD4D0"/>
<stop offset="1" stop-color="#F0E9CB"/>
</linearGradient>
<linearGradient id="paint29_linear_19_371" x1="94.9345" y1="98.5852" x2="111.493" y2="98.5852" gradientUnits="userSpaceOnUse">
<stop stop-color="#E5C6D6"/>
<stop offset="0.42" stop-color="#EAD4D0"/>
<stop offset="1" stop-color="#F0E9CB"/>
</linearGradient>
</defs>
</svg>
