<svg width="406" height="306" viewBox="0 0 406 306" fill="none" xmlns="http://www.w3.org/2000/svg">
<path d="M212.176 144.393H158.685V160.186H212.176V144.393Z" fill="#E6E6E6"/>
<path opacity="0.45" d="M212.176 262.772C294.725 262.772 361.644 255.91 361.644 247.446C361.644 238.981 294.725 232.119 212.176 232.119C129.626 232.119 62.7067 238.981 62.7067 247.446C62.7067 255.91 129.626 262.772 212.176 262.772Z" fill="#E6E6E6"/>
<path d="M239.966 167.2H96.1205V242.269H239.966V167.2Z" fill="#E6E6E6"/>
<path d="M247.985 158.948H88.0919V167.2H247.985V158.948Z" fill="#C9C9C9"/>
<path d="M149.997 243.568C149.997 243.568 152.22 247.263 155.874 246.857C159.528 246.451 161.172 249.77 158.117 251.333C155.062 252.896 144.445 250.318 144.445 250.318V243.751L149.997 243.568Z" fill="#8FE1D7"/>
<path d="M101.703 243.568C101.703 243.568 99.4802 247.263 95.8262 246.857C92.1722 246.451 90.5177 249.77 93.5729 251.333C96.628 252.896 108.707 249.902 108.707 249.902L107.255 243.751L101.703 243.568Z" fill="#8FE1D7"/>
<path d="M142.252 162.135H89.1576L98.6986 243.65H110.818C110.818 243.65 106.524 185.632 112.523 176.091V176.04C112.97 175.379 113.565 174.829 114.26 174.436C114.955 174.043 115.732 173.816 116.53 173.774C117.328 173.732 118.124 173.875 118.857 174.192C119.59 174.51 120.24 174.993 120.755 175.604C134.965 192.199 140.527 243.609 140.527 243.609H152.27L142.252 162.135Z" fill="#24285B"/>
<path d="M110.808 104.28C107.935 88.1618 130.164 80.6711 137.583 95.2668C146.434 112.694 161.943 136.06 179.411 129.99C200.462 122.662 206.37 111.355 207.963 106.645C208.605 104.74 209.839 103.09 211.485 101.935C213.942 100.21 217.443 98.7483 220.052 101.621C224.528 106.554 215.139 111.7 215.139 111.7C215.139 111.7 200.929 153.162 167.079 152.3C144.221 151.691 114.695 125.91 110.808 104.28Z" fill="#F4A28C"/>
<path opacity="0.09" d="M110.808 104.28C107.935 88.1618 130.164 80.6711 137.583 95.2668C146.434 112.694 161.943 136.06 179.411 129.99C201.244 122.388 206.816 110.512 208.116 106.178C208.536 104.823 209.353 103.624 210.46 102.737C212.876 100.778 217.048 98.3423 220.052 101.651C224.528 106.584 215.139 111.73 215.139 111.73C215.139 111.73 200.929 153.193 167.079 152.33C144.221 151.691 114.695 125.91 110.808 104.28Z" fill="black"/>
<path d="M116.004 77.8189C116.004 77.8189 92.4563 74.0431 81.809 94.9724C71.1616 115.902 89.1576 162.135 89.1576 162.135H142.252C142.252 162.135 186.912 84.1525 116.004 77.8189Z" fill="#8FE1D7"/>
<path d="M128.225 79.92L126.794 201.598H152.301C152.301 201.598 160.512 124.093 154.676 103.732C148.84 83.371 136.578 83.2695 128.225 79.92Z" fill="#8FE1D7"/>
<path d="M116.004 77.819L117.293 202.908L87.1682 204.115C87.1682 204.115 75.5769 135.248 78.7234 118.389C81.8699 101.529 75.719 97.175 82.3368 89.8365C86.445 85.1119 91.7005 81.5244 97.5971 79.4196C103.494 77.3148 109.833 76.7636 116.004 77.819Z" fill="#8FE1D7"/>
<path opacity="0.44" d="M117.293 202.908L112.289 203.111L87.1682 204.126C87.1682 204.126 75.5769 135.258 78.7234 118.399C79.4153 114.801 79.735 111.141 79.6775 107.477C79.5252 99.0629 77.4445 95.2972 82.3368 89.8467C86.445 85.122 91.7005 81.5346 97.5971 79.4298C103.494 77.325 109.833 76.7737 116.004 77.8291L117.293 202.908Z" fill="white"/>
<path opacity="0.08" d="M114.38 192.859C114.021 193.639 113.582 194.381 113.071 195.072C111.559 197.589 111.823 200.37 112.289 203.111L87.1682 204.126C87.1682 204.126 75.5769 135.258 78.7234 118.399C79.4153 114.801 79.735 111.141 79.6775 107.477C83.1927 105.236 87.2723 104.039 91.4413 104.026C91.827 104.026 92.2127 104.026 92.5883 104.087C101.195 104.798 100.18 114.562 98.5971 121.109C96.8411 128.396 92.2432 134.497 90.406 141.683C88.376 149.6 86.0618 164.733 94.06 169.727C96.4757 171.229 99.2061 172.214 101.561 173.787C103.754 175.403 105.744 177.277 107.489 179.37C110.391 182.597 113.406 186.028 114.36 190.261C114.592 191.11 114.599 192.006 114.38 192.859Z" fill="black"/>
<path opacity="0.44" d="M128.225 79.92L126.794 201.598H152.301C152.301 201.598 160.512 124.093 154.676 103.732C148.84 83.371 136.578 83.2695 128.225 79.92Z" fill="white"/>
<path d="M91.35 84.1018C83.433 88.6592 69.7407 97.7739 61.8338 110.055L86.6709 133.289C86.6709 133.289 130.062 103.164 104.464 84.7514C102.571 83.3948 100.328 82.612 98.0025 82.4968C95.6769 82.3816 93.3673 82.9388 91.35 84.1018Z" fill="#8FE1D7"/>
<path opacity="0.44" d="M90.8527 84.3758C82.8646 89.0245 69.5377 98.0175 61.8135 110.055L86.6506 133.289C86.6506 133.289 129.534 103.509 104.921 85.066C102.901 83.5866 100.491 82.7325 97.9902 82.6098C95.4894 82.4871 93.0077 83.1012 90.8527 84.3758Z" fill="white"/>
<path d="M96.9098 171.21L70.1033 195.136L87.0406 214.112L113.847 190.186L96.9098 171.21Z" fill="#FFD200"/>
<path d="M63.6608 111.791C63.6608 111.791 38.1741 140.901 45.7866 153.325C53.3991 165.748 81.3725 178.7 81.3725 178.7C81.3725 178.7 83.2402 188.921 89.2591 188.139C91.6139 187.835 92.1518 185.399 91.9387 182.547C91.7196 180.001 90.986 177.525 89.7821 175.271C88.5783 173.017 86.9293 171.031 84.9352 169.433C76.3584 162.46 60.7579 145.885 86.6506 133.248L63.6608 111.791Z" fill="#F4A28C"/>
<path d="M110.28 97.9058C108.798 89.0449 108.838 76.6619 118.938 75.4134C130.001 74.0533 139.583 95.1856 133.868 110.238" stroke="#24285B" stroke-width="2.03" stroke-linecap="round" stroke-linejoin="round"/>
<path d="M126.449 57.2855L116.004 77.8088L126.581 89.5118L130.62 65.8318L126.449 57.2855Z" fill="#F4A28C"/>
<path opacity="0.31" d="M130.153 69.567C128.768 68.7014 127.667 67.4486 126.987 65.9638C126.987 65.9638 125.87 70.0238 129.017 75.4134L130.153 69.567Z" fill="#CE8172"/>
<path d="M136.771 58.6557C136.771 58.6557 136.142 65.6592 134.163 70.044C133.972 70.4689 133.699 70.8517 133.359 71.1704C133.02 71.489 132.621 71.7372 132.184 71.9005C131.748 72.0638 131.284 72.139 130.819 72.1218C130.354 72.1045 129.896 71.9951 129.473 71.8C127.291 70.785 124.622 68.755 124.5 64.9589L123.485 58.5441C123.421 57.2395 123.764 55.9474 124.466 54.8457C125.168 53.7441 126.194 52.8872 127.403 52.3932C131.828 50.2719 137.37 54.413 136.771 58.6557Z" fill="#F4A28C"/>
<path d="M136.152 63.0507L137.604 66.0957C137.686 66.2674 137.723 66.4571 137.712 66.6472C137.702 66.8373 137.643 67.0215 137.541 67.1827C137.44 67.3439 137.299 67.4768 137.133 67.5689C136.966 67.661 136.779 67.7094 136.589 67.7096H133.858L136.152 63.0507Z" fill="#F4A28C"/>
<path d="M121.648 65.5679L121.983 56.0168C121.983 56.0168 117.131 53.6112 119.669 50.7388C122.206 47.8663 123.586 50.7388 124.815 46.8818C126.043 43.0248 129.382 43.2379 130.905 46.0495C132.427 48.861 132.346 45.542 135.218 45.9581C138.091 46.3743 138.446 47.8257 137.888 49.9369C137.33 52.0481 141.948 50.9519 142.191 53.9969C142.435 57.0419 141.796 59.549 134.822 57.925C127.849 56.301 131.097 63.3654 121.648 65.5679Z" fill="#FFD200"/>
<path d="M128.357 63.274C128.357 63.274 128.783 60.6045 126.743 60.4523C124.703 60.3 124.074 64.157 126.743 64.9995L128.357 63.274Z" fill="#F4A28C"/>
<path d="M133.544 115.932C135.831 115.932 137.685 114.078 137.685 111.791C137.685 109.504 135.831 107.65 133.544 107.65C131.256 107.65 129.402 109.504 129.402 111.791C129.402 114.078 131.256 115.932 133.544 115.932Z" fill="#24285B"/>
<path d="M115.081 120.52C115.081 120.52 119.912 120.52 120.409 116.46C120.998 111.618 115.568 97.3679 111.386 97.6927C104.647 98.2205 102.068 111.07 104.454 117.993C105.256 120.337 109.001 120.124 110.797 120.205" stroke="#24285B" stroke-width="2.03" stroke-linecap="round" stroke-linejoin="round"/>
<path d="M102.506 174.535L98.555 178.051L105.794 186.187L109.745 182.672L102.506 174.535Z" fill="#24285B"/>
<path d="M334.067 181.359H288.646C282.732 181.359 277.937 186.153 277.937 192.067V192.077C277.937 197.992 282.732 202.786 288.646 202.786H334.067C339.981 202.786 344.775 197.992 344.775 192.077V192.067C344.775 186.153 339.981 181.359 334.067 181.359Z" fill="#FFD200"/>
<path d="M341.253 200.543H280.495V246.451H341.253V200.543Z" fill="#FFD200"/>
<path d="M310.935 73.3225C310.927 75.921 311.269 78.5087 311.95 81.0162C312.048 81.3093 312.204 81.5799 312.408 81.8125C312.611 82.045 312.859 82.2347 313.137 82.3707C313.414 82.5067 313.716 82.5862 314.025 82.6045C314.333 82.6229 314.642 82.5798 314.934 82.4778C315.895 82.2129 316.76 81.6767 317.424 80.9332C318.088 80.1898 318.524 79.2706 318.68 78.2859L319.725 74.1142C319.858 73.2508 319.716 72.3675 319.321 71.5883C318.926 70.8092 318.297 70.1733 317.522 69.77C314.751 68.1054 310.823 70.4704 310.935 73.3225Z" fill="#F4A28C"/>
<path d="M320.385 76.5807L321.714 91.826L313.259 91.9477L315.635 81.0873L320.385 76.5807Z" fill="#F4A28C"/>
<path d="M311.057 76.266L309.89 78.1539C309.824 78.2617 309.787 78.3844 309.781 78.5104C309.775 78.6365 309.802 78.762 309.857 78.8753C309.913 78.9886 309.996 79.0861 310.099 79.1587C310.203 79.2313 310.322 79.2767 310.448 79.2907L312.255 79.4835L311.057 76.266Z" fill="#F4A28C"/>
<path opacity="0.31" d="M315.563 81.4019C316.58 81.2043 317.524 80.7342 318.294 80.0418C318.294 80.0418 318.893 83.3405 314.883 84.5078L315.563 81.4019Z" fill="#CE8172"/>
<path d="M265.839 193.641V240.351L270.325 241.914L281.409 194.595L265.839 193.641Z" fill="#F4A28C"/>
<path d="M266.001 239.275C266.001 239.275 263.068 242.401 259.698 241.944C256.328 241.488 255.425 246.218 260.906 246.197C262.606 246.201 264.304 246.058 265.981 245.771C267.526 245.554 269.101 245.747 270.548 246.329C270.832 246.423 271.138 246.428 271.425 246.343C271.712 246.258 271.966 246.086 272.152 245.852C273.857 244.167 270.426 239.661 270.426 239.661L266.001 239.275Z" fill="#8FE1D7"/>
<path d="M320.07 76.6212C320.07 76.6212 319.969 74.8247 321.329 74.8653C322.689 74.9059 322.841 77.4941 321.034 77.9103L320.07 76.6212Z" fill="#F4A28C"/>
<path d="M311.889 73.0281C313.374 73.2803 314.891 73.2803 316.376 73.0281C316.376 73.0281 317.33 78.2148 321.451 79.514C321.451 79.514 325.348 71.7797 320.567 68.7753C316.558 66.2682 313.584 64.0352 310.286 67.0193C309.811 67.4515 309.464 68.0058 309.283 68.6217C309.102 69.2376 309.094 69.8913 309.26 70.5115C309.425 71.1317 309.758 71.6944 310.222 72.1383C310.686 72.5821 311.262 72.8899 311.889 73.0281Z" fill="#24285B"/>
<path d="M323.217 71.2012C325.778 71.2012 327.855 69.1244 327.855 66.5626C327.855 64.0008 325.778 61.9241 323.217 61.9241C320.655 61.9241 318.578 64.0008 318.578 66.5626C318.578 69.1244 320.655 71.2012 323.217 71.2012Z" fill="#24285B"/>
<path d="M316.294 75.7483C316.294 75.7483 316.497 73.7184 318.152 73.9924C319.806 74.2665 319.786 76.743 317.705 77.7073L316.294 75.7483Z" fill="#F4A28C"/>
<path d="M312.671 94.3736L320.923 91.9985C320.923 91.9985 342.979 94.3736 342.745 112.065C342.573 125.169 327.266 174.153 327.266 174.153H293.721V156.898C293.795 148.731 291.879 140.67 288.138 133.41C282.952 123.565 280.231 106.462 312.671 94.3736Z" fill="#8FE1D7"/>
<path d="M293.721 166.083L327.266 174.203C327.266 174.203 328.901 188.677 317.228 189.814C305.556 190.951 269.777 186.972 283.682 230.982H255.993C255.993 230.982 239.164 183.694 280.282 174.203C285.266 173.046 293.619 172.102 293.7 166.987L293.721 166.083Z" fill="#24285B"/>
<path opacity="0.08" d="M310.336 106.706C310.336 106.706 293.974 112.633 299.587 132.507C305.2 152.381 293.7 155.406 293.7 155.406L308.56 169.9L327.297 174.153L333.184 154.38L310.336 106.706Z" fill="black"/>
<path d="M308.56 96.0281C308.298 94.8069 308.467 93.5325 309.039 92.4221C309.611 91.3116 310.55 90.4338 311.696 89.9381C315.898 87.9081 325.835 85.33 327.297 93.5007C327.266 93.4804 318.04 99.4791 308.56 96.0281Z" fill="#8FE1D7"/>
<path opacity="0.46" d="M308.56 96.0281C308.298 94.8069 308.467 93.5325 309.039 92.4221C309.611 91.3116 310.55 90.4338 311.696 89.9381C315.898 87.9081 325.835 85.33 327.297 93.5007C327.266 93.4804 318.04 99.4791 308.56 96.0281Z" fill="white"/>
<path d="M306.428 115.445C307.778 99.9054 329.773 97.9769 334.006 112.989C336.249 120.916 337.406 132.406 334.808 148.514C328.545 187.419 276.811 175.675 276.811 175.675L275.857 170.153C275.857 170.153 297.933 161.272 308.56 149.955C314.782 143.226 305.342 127.96 306.428 115.445Z" fill="#F4A28C"/>
<path d="M278.455 169.605C278.455 169.605 269.635 169.23 267.503 173.28C265.372 177.33 263.443 181.856 267.564 182.039C271.685 182.222 272.04 177.309 273.37 176.518C274.7 175.726 280.282 175.685 280.282 172.762C280.282 169.839 278.455 169.605 278.455 169.605Z" fill="#F4A28C"/>
<path d="M281.734 43.2278H224.244V115.78H281.734V43.2278Z" fill="#C9C9C9"/>
<path d="M278.546 47.2472H227.431V111.761H278.546V47.2472Z" fill="#E6E6E6"/>
<path opacity="0.08" d="M272.091 52.4135H257.993V53.936H272.091V52.4135Z" fill="black"/>
<path opacity="0.08" d="M272.091 55.6006H257.993V57.1231H272.091V55.6006Z" fill="black"/>
<path opacity="0.08" d="M272.091 58.7775H257.993V60.3H272.091V58.7775Z" fill="black"/>
<path opacity="0.58" d="M226.751 148.25C226.751 148.25 218.316 145.936 216.479 138.1C216.479 138.1 229.552 135.461 229.928 148.96L226.751 148.25Z" fill="#8FE1D7"/>
<path opacity="0.73" d="M227.786 147.407C227.786 147.407 221.889 138.08 227.086 129.361C227.086 129.361 237.033 135.684 232.608 147.428L227.786 147.407Z" fill="#8FE1D7"/>
<path d="M229.309 147.417C229.309 147.417 232.435 137.562 241.844 135.745C241.844 135.745 243.61 142.139 235.754 147.478L229.309 147.417Z" fill="#8FE1D7"/>
<path d="M223.188 147.194L224.894 158.897L235.673 158.948L237.266 147.255L223.188 147.194Z" fill="#24285B"/>
<path d="M267.506 71.188C263.653 67.8524 257.922 68.4524 254.386 72.1595L253.001 73.6094L251.615 72.1595C248.086 68.4524 242.348 67.8524 238.495 71.188C234.08 75.0165 233.848 81.8879 237.799 86.0378L251.404 100.309C252.283 101.23 253.711 101.23 254.59 100.309L268.195 86.0378C272.153 81.8879 271.921 75.0165 267.506 71.188Z" fill="#8FE1D7"/>
</svg>
