<svg width="428" height="331" viewBox="0 0 428 331" fill="none" xmlns="http://www.w3.org/2000/svg">
<path d="M42.6604 193.475L248.643 307.055L361.663 232.155L166.736 125.92L42.6604 193.475Z" fill="#FAEFEC"/>
<path opacity="0.32" d="M152.451 168.124L90.3682 202.577L113.09 216.005L173.818 181.87C165.604 176.38 159.61 174.931 152.451 168.124Z" fill="url(#paint0_linear_19_212)"/>
<path opacity="0.32" d="M269.322 246.746L207.851 282.44L222.17 290.279L282.898 256.145C274.684 250.644 276.438 253.532 269.322 246.746Z" fill="url(#paint1_linear_19_212)"/>
<path opacity="0.32" d="M217.596 191.609L140.229 240.159L187.049 266.509L251.585 230.278C243.371 224.788 224.7 198.438 217.596 191.609Z" fill="url(#paint2_linear_19_212)"/>
<path d="M184.807 196.407C185.406 197.373 232.093 223.24 232.093 223.24L264.416 205.311L279.068 196.868L261.053 186.536C256.89 184.165 231.971 169.892 231.971 169.892L184.807 196.407Z" fill="#FFC65A"/>
<path d="M232.093 223.229V241.136L279.068 214.237V196.868L232.093 223.229Z" fill="#FA8E00"/>
<path d="M184.807 196.407V214.281L232.093 241.136V223.229L184.807 196.407Z" fill="#FF9D27"/>
<path d="M260.742 186.24C260.742 186.24 267.113 195.462 265.027 204.762C265.027 204.762 273.796 198.701 276.127 188.611C276.082 188.556 266.703 188.48 260.742 186.24Z" fill="#FFA84A"/>
<path d="M361.663 144.661L300.103 110.571V156.563L361.663 191.609V144.661Z" fill="#FFC3CA"/>
<path d="M249.942 102.589L284.485 122.571V169.881L249.942 149.415V102.589Z" fill="#FF876A"/>
<path d="M253.96 64.3811C253.96 64.3811 254.049 89.337 249.464 94.2996L268.568 105.279C270.542 102.766 271.868 99.8154 272.43 96.6821C272.841 93.8714 274.229 75.2835 274.229 75.2835L253.96 64.3811Z" fill="#FFC65A"/>
<path d="M277.27 77.7319C277.27 77.7319 277.359 102.688 272.774 107.65L291.878 118.63C293.852 116.117 295.178 113.166 295.74 110.033C296.207 107.31 297.594 88.6453 297.594 88.6453L277.27 77.7319Z" fill="#FFC65A"/>
<path d="M170.388 18.3781L243.137 59.9236C243.137 59.9236 244.802 122.088 226.587 138.063L155.225 97.1103C155.225 97.1103 173.274 65.0509 170.388 18.3781Z" fill="#68E1FD"/>
<path d="M228.608 49.4274L235.545 44.6734L248.643 80.872L240.363 84.0999L228.608 49.4274Z" fill="#FFC65A"/>
<path d="M165.604 36.7683L188.714 21.1448L181.588 15.0514L163.095 28.7644L165.604 36.7683Z" fill="#FFC65A"/>
<path d="M312.535 113.392V122.56L347.489 141.379V133.034L312.535 113.392Z" fill="#68E1FD"/>
<path d="M287.904 86.142C289.682 86.142 291.123 84.7165 291.123 82.958C291.123 81.1995 289.682 79.774 287.904 79.774C286.126 79.774 284.685 81.1995 284.685 82.958C284.685 84.7165 286.126 86.142 287.904 86.142Z" fill="#E28133"/>
<path d="M263.994 72.6814C265.772 72.6814 267.213 71.2559 267.213 69.4975C267.213 67.739 265.772 66.3135 263.994 66.3135C262.217 66.3135 260.775 67.739 260.775 69.4975C260.775 71.2559 262.217 72.6814 263.994 72.6814Z" fill="#E28133"/>
<path d="M171.409 76.6559C171.409 76.6559 170.899 73.2414 171.409 71.9239C171.827 70.2892 172.098 68.6212 172.22 66.9393C172.55 66.8651 172.897 66.9121 173.195 67.0717C173.493 67.2312 173.722 67.4924 173.84 67.8066C174.329 68.9046 173.319 71.7811 173.319 71.7811C173.319 71.7811 176.182 77.666 173.319 80.334C170.455 83.0019 171.409 76.6559 171.409 76.6559Z" fill="#FFAC99"/>
<path d="M152.406 95.0132L171.409 76.6669C171.409 76.6669 175.716 85.9224 171.409 90.1604L153.971 107.31" fill="#FFC3CA"/>
<path d="M148.854 170.902C148.854 170.902 146.223 174.503 146.445 176.611C146.667 178.719 150.008 182.265 150.763 183.769C151.518 185.274 151.729 185.965 150.763 187.063C149.798 188.161 141.617 181.101 141.428 179.971C141.239 178.84 142.538 174.481 142.538 174.481L138.908 179.026L136.3 177.478L141.917 168.135" fill="#EA7554"/>
<path d="M149.886 187.129C149.664 186.91 143.226 184.692 143.226 184.692C143.226 184.692 140.185 181.552 140.263 180.366C140.34 179.18 141.461 174.426 142.605 174.47C143.748 174.514 143.87 180.805 143.87 180.805L149.886 187.129Z" fill="#AF4127"/>
<path d="M157.601 176.864L158.433 186.459C158.433 186.459 160.531 187.975 161.042 187.843C161.552 187.711 163.095 187.316 163.118 187.074C163.14 186.833 162.374 180.289 162.596 180.124C162.818 179.96 166.026 185.12 167.036 185.23C168.046 185.339 175.727 180.915 174.995 179.235C174.262 177.555 170.555 178.434 168.712 178.423C167.444 178.373 166.22 177.954 165.193 177.217C164.165 176.481 163.382 175.46 162.94 174.283" fill="#EA7554"/>
<path d="M162.463 150.876L167.158 175.469C167.158 175.469 164.45 178.972 154.748 178.532L147.544 161.108" fill="#FF876A"/>
<path d="M164.538 112.295C164.538 112.295 171.776 122.736 169.545 139.644C167.569 154.631 152.439 172.285 152.439 172.285C152.439 172.285 147.922 174.283 138.52 165.5L148.921 149.152C148.921 149.152 138.786 125.942 150.752 111.186" fill="#FF876A"/>
<g opacity="0.55">
<path d="M184.33 89.7432C183.819 83.7705 186.317 78.8518 190.013 78.5444C193.709 78.2369 197.006 82.6725 197.516 88.6453C198.027 94.618 195.53 99.6245 191.8 99.888C188.07 100.152 184.84 95.7598 184.33 89.7432ZM186.339 89.5785C186.738 94.2776 189.18 98.0655 191.667 97.8568C194.153 97.6482 195.918 93.4651 195.519 88.8099C195.119 84.1547 192.677 80.323 190.191 80.5316C187.704 80.7402 185.928 84.9233 186.328 89.6224L186.339 89.5785Z" fill="#F2F2F2"/>
</g>
<path d="M184.94 92.2574C185.013 92.0378 185.154 91.8465 185.344 91.7109C185.533 91.5753 185.761 91.5023 185.995 91.5023C186.228 91.5023 186.456 91.5753 186.646 91.7109C186.835 91.8465 186.976 92.0378 187.049 92.2574C187.049 92.9601 187.049 93.6628 187.049 94.3655L187.282 93.9043C188.108 91.9607 188.726 89.9368 189.125 87.8657C189.38 86.5263 191.345 87.1301 191.156 88.4257C191.016 89.4427 190.801 90.4482 190.512 91.434L190.723 91.3462C190.904 91.2877 191.095 91.2666 191.284 91.2841C191.473 91.3017 191.657 91.3575 191.823 91.4481C191.99 91.5386 192.136 91.6621 192.252 91.8108C192.368 91.9594 192.452 92.1302 192.499 92.3123C192.585 92.6362 192.585 92.9766 192.499 93.3005H192.655C192.884 93.3745 193.092 93.5011 193.263 93.6699C193.433 93.8387 193.561 94.0449 193.636 94.2718C193.71 94.4986 193.73 94.7397 193.692 94.9754C193.655 95.2111 193.562 95.4347 193.421 95.6281C193.683 95.8302 193.864 96.1183 193.931 96.4405C193.974 96.81 193.912 97.1838 193.753 97.5209C193.595 97.8579 193.345 98.1452 193.032 98.3509C192.299 98.9438 191.511 99.7233 190.812 100.36C189.946 101.195 188.958 102.029 188.137 102.71C187.316 103.39 185.984 101.162 185.917 100.415C185.766 100.464 185.606 100.476 185.449 100.449C185.293 100.422 185.146 100.357 185.02 100.261C184.895 100.164 184.796 100.039 184.732 99.895C184.668 99.7514 184.64 99.5944 184.652 99.4379C184.896 97.0663 184.992 94.6729 184.94 92.2574Z" fill="#FFAC99"/>
<path d="M189.158 94.4862C189.654 93.4615 190.113 92.4185 190.535 91.3571C190.623 91.1375 190.99 91.2254 190.901 91.4559C190.472 92.5465 189.998 93.6188 189.48 94.6729C189.38 94.9034 189.047 94.7058 189.158 94.4862Z" fill="#AF594A"/>
<path d="M163.439 89.2381C165.252 90.8429 166.889 92.6314 168.324 94.5741C169.689 96.7699 175.161 102.732 177.414 100.931C179.668 99.1304 183.664 95.7049 183.664 95.7049C183.664 95.7049 189.358 99.5806 188.77 103.621C188.77 103.621 183.708 113.854 175.816 111.592C167.924 109.33 165.959 106.388 165.959 106.388L164.771 113.041C164.771 113.041 154.981 116.071 150.441 111.57C150.441 111.57 147.455 92.4551 149.653 89.6114" fill="#FFC3CA"/>
<path d="M164.527 77.666C164.605 77.8856 164.772 84.8245 162.385 85.4832C159.998 86.142 155.947 84.4951 154.904 82.2993C153.86 80.1034 155.359 73.0986 159.111 72.6924C162.862 72.2862 163.861 75.6458 164.527 77.666Z" fill="#FFAC99"/>
<path d="M161.641 78.9506C160.076 80.0485 161.064 82.0028 161.73 83.2874C162.223 84.2684 162.463 85.3545 162.429 86.4494C162.411 87.4717 162.775 88.4647 163.451 89.2381C163.973 89.889 164.42 90.5961 164.783 91.3462C161.303 91.9727 157.743 92.0173 154.249 91.4779C151.371 91.2621 148.507 90.8956 145.668 90.38C145.7 89.7787 145.839 89.1877 146.079 88.6343C146.756 87.1082 147.866 86.2847 147.6 84.4841C147.231 83.135 147.208 81.716 147.533 80.3559C148.044 78.9396 149.254 78.2809 150.408 77.4464C150.745 77.2026 151.061 76.9308 151.352 76.634L151.596 76.2277C152.178 74.9735 152.888 73.7816 153.716 72.6705C154.638 71.7583 155.826 71.1554 157.112 70.9467C158.46 70.7036 159.844 70.7339 161.18 71.0359C162.516 71.3379 163.775 71.9052 164.882 72.7034C164.882 72.7034 166.925 74.6467 166.281 76.7328C165.637 78.8188 163.051 78.0064 161.641 78.9506Z" fill="#E28133"/>
<path d="M163.439 155.948C163.439 155.948 155.159 170.133 152.451 172.285L154.759 178.521C154.759 178.521 164.372 165.171 163.439 155.948Z" fill="#EA7554"/>
<path d="M149.065 148.35C151.709 142.827 153.178 136.826 153.383 130.718C153.383 130.235 154.16 130.235 154.149 130.718C153.932 136.961 152.42 143.093 149.709 148.735C149.52 149.174 148.854 148.79 149.065 148.35Z" fill="#EA7554"/>
<path d="M306.974 226.292L326.832 223.229L309.549 240.653" fill="#FFC65A"/>
<path d="M306.974 241.411C310.229 241.411 312.868 238.024 312.868 233.846C312.868 229.668 310.229 226.281 306.974 226.281C303.718 226.281 301.08 229.668 301.08 233.846C301.08 238.024 303.718 241.411 306.974 241.411Z" fill="#68E1FD"/>
<path d="M239.508 280.497L309.549 240.653L304.765 226.841L234.479 266.838L239.508 280.497Z" fill="#68E1FD"/>
<path d="M237.21 281.101C240.465 281.101 243.104 277.714 243.104 273.536C243.104 269.358 240.465 265.971 237.21 265.971C233.955 265.971 231.316 269.358 231.316 273.536C231.316 277.714 233.955 281.101 237.21 281.101Z" fill="#68E1FD"/>
<path opacity="0.52" d="M237.21 281.101C240.465 281.101 243.104 277.714 243.104 273.536C243.104 269.358 240.465 265.971 237.21 265.971C233.955 265.971 231.316 269.358 231.316 273.536C231.316 277.714 233.955 281.101 237.21 281.101Z" fill="#505A63"/>
<path d="M326.831 223.229L319.328 224.382C319.328 224.382 322.136 225.315 321.326 228.773L326.831 223.229Z" fill="#895415"/>
<defs>
<linearGradient id="paint0_linear_19_212" x1="110.304" y1="206.354" x2="158.127" y2="174.66" gradientUnits="userSpaceOnUse">
<stop stop-color="white" stop-opacity="0"/>
<stop offset="0.98" stop-color="#AA6800"/>
</linearGradient>
<linearGradient id="paint1_linear_19_212" x1="220.038" y1="289.028" x2="233.048" y2="278.667" gradientUnits="userSpaceOnUse">
<stop stop-color="white" stop-opacity="0"/>
<stop offset="0.98" stop-color="#AA6800"/>
</linearGradient>
<linearGradient id="paint2_linear_19_212" x1="177.947" y1="258.373" x2="199.317" y2="230.206" gradientUnits="userSpaceOnUse">
<stop stop-color="white" stop-opacity="0"/>
<stop offset="0.98" stop-color="#AA6800"/>
</linearGradient>
</defs>
</svg>
